<svg xmlns="http://www.w3.org/2000/svg" xmlns:xlink="http://www.w3.org/1999/xlink" viewBox="0 0 2502 2304"><defs><style>.cls-1,.cls-2,.cls-24{fill:#fff;}.cls-1,.cls-10,.cls-24,.cls-3{stroke:#000;}.cls-1,.cls-10,.cls-11,.cls-15,.cls-16,.cls-17,.cls-23,.cls-24,.cls-25,.cls-26,.cls-3,.cls-4,.cls-5,.cls-6,.cls-7,.cls-8,.cls-9{stroke-miterlimit:10;}.cls-1{stroke-width:4px;}.cls-10,.cls-11,.cls-15,.cls-16,.cls-17,.cls-23,.cls-25,.cls-3,.cls-4,.cls-5,.cls-6,.cls-7,.cls-8{fill:none;}.cls-17,.cls-23,.cls-24,.cls-25,.cls-26,.cls-3,.cls-4,.cls-9{stroke-width:10px;}.cls-4{stroke:gray;}.cls-23,.cls-5{stroke:#c6009f;}.cls-10,.cls-15,.cls-16,.cls-5,.cls-6,.cls-7,.cls-8{stroke-width:12px;}.cls-26,.cls-6{stroke:#87009f;}.cls-7{stroke:#ff69ff;}.cls-25,.cls-8,.cls-9{stroke:#f4eb29;}.cls-11{stroke:#003fff;stroke-width:6px;}.cls-12,.cls-20{font-size:24px;}.cls-12,.cls-20,.cls-22{font-family:ArialMT, Arial;}.cls-13{letter-spacing:-0.06em;}.cls-14{letter-spacing:-0.02em;}.cls-15,.cls-16,.cls-17{stroke:#b20000;}.cls-16{stroke-dasharray:6 6;}.cls-18{letter-spacing:-0.04em;}.cls-19,.cls-22{font-size:21px;}.cls-20{text-decoration:line-through;}.cls-21{letter-spacing:0.04em;}.cls-27{letter-spacing:-0.07em;}</style><symbol id="Interchange" data-name="Interchange" viewBox="0 0 28 28"><circle class="cls-1" cx="14" cy="14" r="12"/></symbol><symbol id="New_Symbol_1" data-name="New Symbol 1" viewBox="0 0 48 24"><path class="cls-2" d="M36,22a10.07,10.07,0,0,1-8.67-5l-.58-1h-5.5l-.58,1A10,10,0,1,1,12,2a10.07,10.07,0,0,1,8.67,5l.58,1h5.5l.58-1A10,10,0,1,1,36,22Z"/><path d="M36,4a8,8,0,1,1-6.94,12l-1.15-2H20.09l-1.15,2a8,8,0,1,1,0-8l1.15,2h7.82l1.15-2A8,8,0,0,1,36,4m0-4A12,12,0,0,0,25.6,6H22.4a12,12,0,1,0,0,12h3.2A12,12,0,1,0,36,0Z"/></symbol></defs><g id="Network_Map" data-name="Network Map"><g id="Upgraded_Iceway_Stations" data-name="Upgraded Iceway Stations"><line class="cls-3" x1="1578" y1="1992" x2="1597" y2="1992"/><line class="cls-4" x1="1116" y1="1746" x2="1116" y2="1764"/></g><g id="Town_1" data-name="Town 1"><path class="cls-5" d="M774,1278v-54a24,24,0,0,0-24-24H672a12,12,0,0,1-12-12V1050a12,12,0,0,1,12-12H816a24,24,0,0,1,24,24v9.31a48,48,0,0,1-15,34.9l-13.28,12.54c-9.74,9.19-13.82,19.86-13.67,33.25v126"/></g><g id="Weizenburg_Line_2" data-name="Weizenburg Line 2"><path class="cls-6" d="M822,1278v-96.62a48,48,0,0,1,11.13-30.73l7.74-9.3A48,48,0,0,0,852,1110.62V1062a36,36,0,0,0-36-36h-6a24,24,0,0,1-24-24V846"/></g><g id="Isle_of_Pig_Rail" data-name="Isle of Pig Rail"><path class="cls-7" d="M930,1446V1272a48,48,0,0,0-48-48H870a48,48,0,0,0-48,48v6"/></g><g id="Brotway"><path class="cls-8" d="M1452,1716l75.94-75.94a48,48,0,0,0,14.06-33.94V1470c0-13.25-10.75-24-23-24.57H1309"/><line class="cls-9" x1="1500" y1="1668" x2="1512" y2="1680"/></g><g id="Overworld_Iceway" data-name="Overworld Iceway"><line class="cls-10" x1="1692" y1="1830" x2="1572" y2="1830"/><path class="cls-10" d="M1500,552H1236a24,24,0,0,0-24,24v744"/><path class="cls-10" d="M1626,1830h-6a24,24,0,0,0-24,24h0"/><path class="cls-10" d="M1254,1482h-18a24,24,0,0,0-24,24v12"/><line class="cls-10" x1="1212" y1="1440" x2="1212" y2="1512"/><path class="cls-10" d="M1212,1734v6a24,24,0,0,1-24,24H1044a24,24,0,0,0-24,24v138"/><path class="cls-10" d="M1212,1788h0a24,24,0,0,0-24-24h0"/><polyline class="cls-10" points="1212 1458 1212 1380 1212 1374 1212 1350 1212 1326 1212 1326"/><path class="cls-10" d="M1212,1170v12a24,24,0,0,1-24,24h-72"/><path class="cls-10" d="M1212,1242v-12a24,24,0,0,0-24-24h-12"/><path class="cls-10" d="M1164,1350h24a24,24,0,0,1,24,24v24"/><path class="cls-10" d="M876,1350h18a24,24,0,0,1,24,24v30"/><path class="cls-10" d="M960,1350H942a24,24,0,0,0-24,24v30"/><line class="cls-10" x1="918" y1="1350" x2="918" y2="1446"/><path class="cls-10" d="M900,264a24,24,0,0,1,24,24V654a24,24,0,0,1-24,24H660a24,24,0,0,0-24,24v360l-23.91,15.94a48,48,0,0,1-26.62,8.06H468a24,24,0,0,0-24,24v102"/><path class="cls-10" d="M1212,612V576a24,24,0,0,0-24-24h-42"/><path class="cls-10" d="M924,510v18a24,24,0,0,0,24,24h324"/><path class="cls-10" d="M924,600V576a24,24,0,0,1,24-24h18"/><path class="cls-10" d="M1788,2148H1620a24,24,0,0,1-24-24V1854a24,24,0,0,0-24-24H1236a24,24,0,0,1-24-24V1506"/><path class="cls-11" d="M1788,2148H1620a24,24,0,0,1-24-24V1854a24,24,0,0,0-24-24H1236a24,24,0,0,1-24-24V1506"/><line class="cls-3" x1="1404" y1="708" x2="1404" y2="744"/><path class="cls-10" d="M1212,696v6a24,24,0,0,0,24,24h168"/><path class="cls-10" d="M1212,750h0a24,24,0,0,1,24-24h0"/><path class="cls-10" d="M1212,1098v-12a24,24,0,0,0-24-24h-6"/><path class="cls-10" d="M1212,1314v12a24,24,0,0,1-24,24H660a24,24,0,0,1-24-24V1062h552a24,24,0,0,0,24-24v-6"/><path class="cls-10" d="M348,264h24a24,24,0,0,1,24,24v78a24,24,0,0,0,24,24h24"/><line class="cls-10" x1="348" y1="264" x2="900" y2="264"/><line class="cls-11" x1="348" y1="264" x2="900" y2="264"/><path class="cls-10" d="M1500,1482H1236a24,24,0,0,1-24-24h0"/><text class="cls-12" transform="translate(750.81 1932)"><tspan class="cls-13">V</tspan><tspan x="14.68" y="0">olpeon</tspan><tspan class="cls-14" x="86.75" y="0">’</tspan><tspan x="91.65" y="0">s Fox Shrine</tspan></text></g><g id="Nether_Iceway" data-name="Nether Iceway"><path class="cls-15" d="M348,240H684a24,24,0,0,1,24,24V1830"/><line class="cls-15" x1="264" y1="240" x2="267" y2="240"/><line class="cls-16" x1="273" y1="240" x2="342" y2="240"/><line class="cls-15" x1="345" y1="240" x2="348" y2="240"/><line class="cls-15" x1="180" y1="240" x2="264" y2="240"/><line class="cls-15" x1="708" y1="1830" x2="708" y2="1833"/><line class="cls-16" x1="708" y1="1839" x2="708" y2="2148"/><line class="cls-15" x1="708" y1="2151" x2="708" y2="2154"/><line class="cls-15" x1="707.96" y1="2153.17" x2="707.96" y2="2255.17"/><line class="cls-17" x1="690" y1="2256" x2="726" y2="2256"/><path class="cls-15" d="M798,36H732a24,24,0,0,0-24,24V288"/><path class="cls-15" d="M666,240h18a24,24,0,0,0,24-24V186"/></g><g id="Station_Names" data-name="Station Names"><text class="cls-12" transform="translate(949.76 462)"><tspan class="cls-18">T</tspan><tspan x="13.77" y="0">ransgal</tspan></text><text class="cls-12" transform="translate(744.2 720)"><tspan class="cls-14">V</tspan><tspan x="15.57" y="0">ibska</tspan></text><text class="cls-12" transform="translate(497.31 828)">Gakamine</text><text class="cls-12" transform="translate(494.19 1044)"><tspan class="cls-14">W</tspan><tspan x="22.22" y="0">eizenburg</tspan><tspan class="cls-19"><tspan x="4.88" y="25.2">(Enigmatico)</tspan></tspan></text><text class="cls-12" transform="translate(494.19 1206)"><tspan class="cls-14">W</tspan><tspan x="22.22" y="0">eizenburg</tspan><tspan class="cls-19"><tspan x="34.06" y="25.2">(Main)</tspan></tspan></text><text class="cls-12" transform="translate(1109.31 846)">Spawn</text><text class="cls-12" transform="translate(1453.97 1422)">Brotburg</text><text class="cls-20" transform="translate(1084 1734)">Emilis</text><text class="cls-12" transform="translate(1369.28 1992)">Mainland Icebloom<tspan class="cls-19"><tspan x="23.12" y="25.2">(Guardian Farm)</tspan></tspan></text><text class="cls-12" transform="translate(1703.28 1836)">Portland Icebloom</text><text class="cls-12" transform="translate(565.99 1368)">Delta</text><text class="cls-12" transform="translate(847.31 1032)">Craftplacer</text><text class="cls-12" transform="translate(839.56 1176.29)">Hellenion</text><text class="cls-12" transform="translate(767.98 1314)">Jeder</text><text class="cls-12" transform="translate(678 877.3) rotate(90)">Nether Portal</text><text class="cls-12" transform="translate(735.3 2262)">Base at 8k</text><text class="cls-12" transform="translate(949.31 1452)">Isle of Pig</text><text class="cls-12" transform="translate(1471.99 522)">Hans</text><text class="cls-12" transform="translate(1057.3 1176)">Cat Island*</text><text class="cls-12" transform="translate(325.99 300)">sn0w</text><text class="cls-12" transform="translate(390 1218)">Isi</text><text class="cls-12" transform="translate(1357.29 1518)"><tspan class="cls-13">V</tspan><tspan x="14.68" y="0">olpeon/</tspan><tspan class="cls-14" x="0.23" y="28.8">A</tspan><tspan x="15.81" y="28.8">vocatto</tspan></text><text class="cls-12" transform="translate(1573.28 1506)">Pinnakle Peak<tspan class="cls-19"><tspan x="46.98" y="25.2">(Fristi)</tspan></tspan></text><text class="cls-12" transform="translate(1572.87 1620)">Mame<tspan class="cls-14" x="66.68" y="0">’</tspan><tspan x="71.58" y="0">s Camp</tspan></text><text class="cls-12" transform="translate(1519.51 1692)">Aety<tspan class="cls-14" x="48.02" y="0">’</tspan><tspan x="52.92" y="0">s</tspan><tspan class="cls-14" x="64.92" y="0"> </tspan><tspan class="cls-18" x="71.16" y="0">T</tspan><tspan x="84.93" y="0">reehut</tspan></text><text class="cls-12" transform="translate(1474.62 1740)">Mame Haus für baum</text><text class="cls-12" transform="translate(1249.28 1416)">Lighthouse</text><text class="cls-12" transform="translate(1806 2154)">EpicKitty &amp; GO01</text><text class="cls-12" transform="translate(1307.06 696)">Ambe<tspan class="cls-21" x="62.7" y="0">r</tspan><tspan class="cls-14" x="71.58" y="0">’</tspan><tspan x="76.48" y="0">s Mountain</tspan></text><text class="cls-12" transform="translate(391.99 438)">Ice Farm*</text><text class="cls-12" transform="translate(864 944)">Brotbauernhof</text><text class="cls-22" transform="translate(810 912)">North</text><text class="cls-22" transform="translate(810 972)">South</text><text class="cls-12" transform="translate(816 852)"><tspan class="cls-14">W</tspan><tspan x="22.22" y="0">eizenburg North</tspan></text><text class="cls-12" transform="translate(108 210)">sn0w<tspan class="cls-14" x="56.03" y="0">’</tspan><tspan x="60.93" y="0">s beach</tspan></text><text class="cls-12" transform="translate(780 78)">Mia</text></g><g id="Station_Paths" data-name="Station Paths"><line class="cls-3" x1="924" y1="456" x2="942" y2="456"/><line class="cls-3" x1="780" y1="678" x2="780" y2="696"/><line class="cls-3" x1="618" y1="822" x2="636" y2="822"/><line class="cls-3" x1="1692" y1="1812" x2="1692" y2="1848"/><path class="cls-1" d="M672,1038a12,12,0,0,1-16.43,11.16l-8.41,8.41A12,12,0,1,1,636,1050a12.66,12.66,0,0,1,1.64.11l10.48-10.47A11.11,11.11,0,0,1,648,1038a12,12,0,0,1,24,0Z"/><path class="cls-2" d="M822,1288a10.05,10.05,0,0,1-8.67-5l-.58-1h-5.5l-.58,1a10,10,0,0,1-17.34,0l-.58-1h-5.5l-.58,1a10,10,0,1,1,0-10l.58,1h5.5l.58-1a10,10,0,0,1,17.34,0l.58,1h5.5l.58-1a10,10,0,1,1,8.67,15Z"/><path d="M822,1270a8,8,0,1,1-6.94,12l-1.15-2h-7.82l-1.15,2a8,8,0,0,1-13.88,0l-1.15-2h-7.82l-1.15,2a8,8,0,1,1,0-8l1.15,2h7.82l1.15-2a8,8,0,0,1,13.88,0l1.15,2h7.82l1.15-2a8,8,0,0,1,6.94-4m0-4a12,12,0,0,0-10.4,6h-3.2a12,12,0,0,0-20.8,0h-3.2a12,12,0,1,0,0,12h3.2a12,12,0,0,0,20.8,0h3.2a12,12,0,1,0,10.4-18Z"/><path class="cls-2" d="M660,1210a10.07,10.07,0,0,1-8.67-5l-.58-1h-5.5l-.58,1a10,10,0,1,1,0-10l.58,1h5.5l.58-1a10,10,0,1,1,8.67,15Z"/><path d="M660,1192a8,8,0,1,1-6.94,12l-1.15-2h-7.82l-1.15,2a8,8,0,1,1,0-8l1.15,2h7.82l1.15-2a8,8,0,0,1,6.94-4m0-4a12,12,0,0,0-10.4,6h-3.2a12,12,0,1,0,0,12h3.2a12,12,0,1,0,10.4-18Z"/><line class="cls-23" x1="794.57" y1="1169.7" x2="812.57" y2="1169.7"/><line class="cls-3" x1="1194" y1="840" x2="1212" y2="840"/><line class="cls-3" x1="1500" y1="534" x2="1500" y2="570"/><line class="cls-3" x1="1116" y1="1224" x2="1116" y2="1188"/><line class="cls-24" x1="642" y1="1344" x2="630" y2="1356"/><line class="cls-3" x1="426" y1="1212" x2="462" y2="1212"/><line class="cls-25" x1="1542" y1="1614" x2="1560" y2="1614"/><line class="cls-25" x1="1440.48" y1="1704.48" x2="1464.48" y2="1728.48"/><line class="cls-9" x1="1542" y1="1500" x2="1560" y2="1500"/><path class="cls-1" d="M1509.48,1482.91a12,12,0,1,1-18-10.39v-15.43a12,12,0,1,1,12,0v15.43A12,12,0,0,1,1509.48,1482.91Z"/><line class="cls-24" x1="1788" y1="2130" x2="1788" y2="2166"/><line class="cls-25" x1="1404" y1="1464" x2="1404" y2="1446"/><line class="cls-25" x1="1308" y1="1428" x2="1308" y2="1464"/><line class="cls-3" x1="444" y1="372" x2="444" y2="408"/><line class="cls-3" x1="1002" y1="1926" x2="1038" y2="1926"/><circle class="cls-1" cx="819.52" cy="1032.96" r="12"/><line class="cls-26" x1="786" y1="966" x2="804" y2="966"/><line class="cls-26" x1="785.57" y1="905.83" x2="803.57" y2="905.83"/><line class="cls-26" x1="768" y1="846" x2="804" y2="846"/><use width="28" height="28" transform="translate(909.65 1430.87)" xlink:href="#Interchange"/><use width="28" height="28" transform="translate(694 1024)" xlink:href="#Interchange"/><use width="48" height="24" transform="translate(342 276) rotate(-90)" xlink:href="#New_Symbol_1"/><line class="cls-17" x1="180" y1="222" x2="180" y2="258"/><line class="cls-17" x1="798" y1="18" x2="798" y2="54"/></g><g id="Legend"><text class="cls-12" transform="translate(2070 36)">Legend</text><line class="cls-10" x1="2070" y1="66" x2="2154" y2="66"/><line class="cls-5" x1="2070" y1="156" x2="2154" y2="156"/><line class="cls-15" x1="2070" y1="216" x2="2154" y2="216"/><text class="cls-12" transform="translate(2172 72)">Overworld Iceway</text><text class="cls-12" transform="translate(2172 132)"><tspan class="cls-14">W</tspan><tspan x="22.22" y="0">eizenburg Local Railway</tspan></text><text class="cls-12" transform="translate(2172 222)">Nether Iceway</text><text class="cls-12" transform="translate(2070 317.18)">*Iceway sections: Cat Island-Core, <tspan x="0" y="28.8">Ice Farm-realsn0w are currently </tspan><tspan x="0" y="57.6">only 2 blocks wide. Make sure </tspan><tspan x="0" y="86.4">there</tspan><tspan class="cls-14" x="54.7" y="86.4">’</tspan><tspan x="59.6" y="86.4">s no one on those sections </tspan><tspan x="0" y="115.2">before entering the icewa</tspan><tspan class="cls-27" x="269.51" y="115.2">y</tspan><tspan x="279.73" y="115.2">.</tspan></text><line class="cls-8" x1="2070" y1="246" x2="2154" y2="246"/><text class="cls-12" transform="translate(2172 252)">Brotway</text><line class="cls-10" x1="2070" y1="96" x2="2154" y2="96"/><line class="cls-11" x1="2070" y1="96" x2="2154" y2="96"/><text class="cls-12" transform="translate(2172 102)">Upgraded Overworld Iceway</text><line class="cls-6" x1="2070" y1="186" x2="2154" y2="186"/><text class="cls-12" transform="translate(2172 162)">Line 1</text><text class="cls-12" transform="translate(2172 192)">Line 2</text><line class="cls-7" x1="2070" y1="276" x2="2154" y2="276"/><text class="cls-12" transform="translate(2172 282)">Isle of Pig Rail</text></g></g></svg>