<svg xmlns="http://www.w3.org/2000/svg" xmlns:xlink="http://www.w3.org/1999/xlink" viewBox="0 0 5274 2598"><defs><style>.cls-1,.cls-18,.cls-2{fill:#fff;}.cls-1,.cls-18,.cls-6,.cls-7{stroke:#000;}.cls-1,.cls-11,.cls-17,.cls-18,.cls-19,.cls-3,.cls-4,.cls-5,.cls-6,.cls-7{stroke-miterlimit:10;}.cls-1{stroke-width:4px;}.cls-11,.cls-17,.cls-19,.cls-3,.cls-4,.cls-6,.cls-7{fill:none;}.cls-17,.cls-3{stroke:#c6009f;}.cls-11,.cls-3,.cls-4,.cls-6{stroke-width:12px;}.cls-19,.cls-4,.cls-5{stroke:#f4eb29;}.cls-17,.cls-18,.cls-19,.cls-5,.cls-7{stroke-width:10px;}.cls-15,.cls-8{font-size:24px;font-family:ArialMT, Arial;}.cls-9{letter-spacing:0.04em;}.cls-10{letter-spacing:-0.02em;}.cls-11{stroke:#b20000;}.cls-12{fill:#b20000;}.cls-13{letter-spacing:-0.04em;}.cls-14{font-size:12px;}.cls-15{text-decoration:line-through;}.cls-16{letter-spacing:-0.06em;}.cls-20{letter-spacing:-0.07em;}</style><symbol id="New_Symbol_1" data-name="New Symbol 1" viewBox="0 0 48 24"><path class="cls-2" d="M36,22a10.07,10.07,0,0,1-8.67-5l-.58-1h-5.5l-.58,1A10,10,0,1,1,12,2a10.07,10.07,0,0,1,8.67,5l.58,1h5.5l.58-1A10,10,0,1,1,36,22Z"/><path d="M36,4a8,8,0,1,1-6.94,12l-1.15-2H20.09l-1.15,2a8,8,0,1,1,0-8l1.15,2h7.82l1.15-2A8,8,0,0,1,36,4m0-4A12,12,0,0,0,25.6,6H22.4a12,12,0,1,0,0,12h3.2A12,12,0,1,0,36,0Z"/></symbol><symbol id="Interchange" data-name="Interchange" viewBox="0 0 28 28"><circle class="cls-1" cx="14" cy="14" r="12"/></symbol></defs><g id="Network_Map" data-name="Network Map"><g id="Town_1" data-name="Town 1"><path class="cls-3" d="M1284,1230v-54a24,24,0,0,0-24-24h-78a12,12,0,0,1-12-12V1002a12,12,0,0,1,12-12h144a24,24,0,0,1,24,24v9.31a48,48,0,0,1-15,34.9l-13.28,12.54a48,48,0,0,0-15.05,35.43L1308,1230"/></g><g id="Brotway"><path class="cls-4" d="M2346,1956l75.94-75.94a48,48,0,0,0,14.06-33.94V1710a24,24,0,0,0-24-24H2298"/><line class="cls-5" x1="2394" y1="1908" x2="2406" y2="1920"/></g><g id="Overworld_Iceway" data-name="Overworld Iceway"><path class="cls-6" d="M1146,1014v552a24,24,0,0,0,24,24H2178a24,24,0,0,0,24-24V1014H1146Z"/><path class="cls-6" d="M2682,342H2226a24,24,0,0,0-24,24v648h0"/><path class="cls-6" d="M2172,1014h6a24,24,0,0,0,24-24v48a24,24,0,0,0-24-24Z"/><path class="cls-6" d="M3516,2070h6a24,24,0,0,1,24,24v132"/><path class="cls-6" d="M3576,2070h-6a24,24,0,0,0-24,24h0"/><path class="cls-6" d="M2202,1974v6a24,24,0,0,1-24,24h-72"/><path class="cls-6" d="M2202,2028h0a24,24,0,0,0-24-24h0"/><path class="cls-6" d="M2202,1740v-42a24,24,0,0,0,24,24h0a24,24,0,0,0-24,24v300a24,24,0,0,0,24,24H3642"/><polyline class="cls-6" points="2202 1878 2202 1722 2202 1620 2202 1614 2202 1590 2202 1566 2202 1566"/><path class="cls-6" d="M2202,1170v12a24,24,0,0,1-24,24h-72"/><path class="cls-6" d="M2202,1242v-12a24,24,0,0,0-24-24h-12"/><path class="cls-6" d="M2154,1590h24a24,24,0,0,1,24,24v24"/><line class="cls-6" x1="2394" y1="1722" x2="2202" y2="1722"/><path class="cls-6" d="M1584,1590h18a24,24,0,0,1,24,24v30"/><path class="cls-6" d="M1668,1590h-18a24,24,0,0,0-24,24v30"/><line class="cls-6" x1="1626" y1="1590" x2="1626" y2="1686"/><path class="cls-6" d="M666,1164V1062a24,24,0,0,1,24-24h405.47a48,48,0,0,0,26.62-8.06L1146,1014V558a24,24,0,0,1,24-24h240a24,24,0,0,0,24-24V78a24,24,0,0,0-24-24H90"/><path class="cls-6" d="M2202,402V366a24,24,0,0,0-24-24h-42"/><path class="cls-6" d="M1434,300v18a24,24,0,0,0,24,24h804"/><path class="cls-6" d="M1434,390V366a24,24,0,0,1,24-24h18"/><path class="cls-6" d="M3546,2226v204a24,24,0,0,0,24,24h648"/><line class="cls-7" x1="2394" y1="498" x2="2394" y2="534"/><text class="cls-8" transform="translate(2297.06 486)">Ambe<tspan class="cls-9" x="62.7" y="0">r</tspan><tspan class="cls-10" x="71.58" y="0">’</tspan><tspan x="76.48" y="0">s Mountain</tspan></text><path class="cls-6" d="M2202,486v6a24,24,0,0,0,24,24h168"/><path class="cls-6" d="M2202,540h0a24,24,0,0,1,24-24h0"/></g><g id="Nether_Iceway" data-name="Nether Iceway"><line class="cls-11" x1="1218" y1="990" x2="1218" y2="1290"/><polygon class="cls-12" points="1193.46 1270.12 1197.86 1266.03 1217.99 1287.7 1238.14 1266.03 1242.53 1270.12 1217.99 1296.51 1193.46 1270.12"/></g><g id="Station_Names" data-name="Station Names"><text class="cls-8" transform="translate(1459.76 252)"><tspan class="cls-13">T</tspan><tspan x="13.77" y="0">ransgal</tspan></text><text class="cls-8" transform="translate(1254.2 576)"><tspan class="cls-10">V</tspan><tspan x="15.57" y="0">ibska</tspan></text><text class="cls-8" transform="translate(1175.31 732)">Gakamine</text><text class="cls-8" transform="translate(1004.19 996)"><tspan class="cls-10">W</tspan><tspan x="22.22" y="0">eizenburg</tspan><tspan class="cls-14"><tspan x="30.14" y="14.4">(Enigmatico)</tspan></tspan></text><text class="cls-8" transform="translate(1004.19 1158)"><tspan class="cls-10">W</tspan><tspan x="22.22" y="0">eizenburg</tspan><tspan class="cls-14"><tspan x="46.81" y="14.4">(Main)</tspan></tspan></text><text class="cls-8" transform="translate(2099.31 636)">Spawn</text><text class="cls-8" transform="translate(2341.97 1662)">Brotburg</text><text class="cls-15" transform="translate(2074 1974)">Emilis</text><text class="cls-8" transform="translate(3319.28 2226)">Mainland Icebloom<tspan class="cls-14"><tspan x="56.38" y="14.4">(Guardian Farm)</tspan></tspan></text><text class="cls-8" transform="translate(3653.28 2076)">Portland Icebloom</text><text class="cls-8" transform="translate(1075.99 1608)">Delta</text><text class="cls-8" transform="translate(1345.31 978)">Craftplacer</text><text class="cls-8" transform="translate(1323.97 1128)">Hellenion</text><text class="cls-8" transform="translate(1265.98 1266)">Jeder</text><text/><text class="cls-8" transform="translate(1161.87 972)">Nether Portal</text><text class="cls-8" transform="translate(1167.3 1320)">Base at 8k</text><text class="cls-8" transform="translate(1489.31 1692)">Isle of Pig</text><text/><text class="cls-8" transform="translate(2653.99 312)">Hans</text><text class="cls-8" transform="translate(2047.3 1176)">Cat Island*</text><text class="cls-8" transform="translate(41.98 102)">realsn0w</text><text class="cls-8" transform="translate(612 1170)">Isi</text><text class="cls-8" transform="translate(2233.29 1632)"><tspan class="cls-16">V</tspan><tspan x="14.68" y="0">olpeon/</tspan><tspan class="cls-10" x="0.23" y="28.8">A</tspan><tspan x="15.81" y="28.8">vocatto</tspan></text><text class="cls-8" transform="translate(2467.28 1746)">Pinnakle Peak<tspan class="cls-14"><tspan x="59.72" y="14.4">(Fristi)</tspan></tspan></text><text class="cls-8" transform="translate(2466.87 1860)">Mame<tspan class="cls-10" x="66.68" y="0">’</tspan><tspan x="71.58" y="0">s Camp</tspan></text><text class="cls-8" transform="translate(2413.51 1932)">Aety<tspan class="cls-10" x="48.02" y="0">’</tspan><tspan x="52.92" y="0">s</tspan><tspan class="cls-10" x="64.92" y="0"> </tspan><tspan class="cls-13" x="71.16" y="0">T</tspan><tspan x="84.93" y="0">reehut</tspan></text><text class="cls-8" transform="translate(4230 2460)">EpicKitty</text><text class="cls-8" transform="translate(2368.62 1980)">Mame Haus für baum</text></g><g id="Station_Paths" data-name="Station Paths"><line class="cls-7" x1="1434" y1="246" x2="1452" y2="246"/><line class="cls-7" x1="1290" y1="534" x2="1290" y2="552"/><line class="cls-7" x1="1146" y1="726" x2="1164" y2="726"/><line class="cls-7" x1="2106" y1="1986" x2="2106" y2="2022"/><line class="cls-7" x1="3642" y1="2052" x2="3642" y2="2088"/><line class="cls-7" x1="3528" y1="2226" x2="3547" y2="2226"/><path class="cls-1" d="M1182,990a12,12,0,0,1-16.43,11.16l-8.41,8.41A12,12,0,1,1,1146,1002a12.66,12.66,0,0,1,1.64.11l10.48-10.47A11.11,11.11,0,0,1,1158,990a12,12,0,0,1,24,0Z"/><use width="48" height="24" transform="translate(1272 1218)" xlink:href="#New_Symbol_1"/><use width="48" height="24" transform="translate(1134 1140)" xlink:href="#New_Symbol_1"/><line class="cls-17" x1="1332" y1="972" x2="1332" y2="990"/><line class="cls-17" x1="1304.57" y1="1121.7" x2="1322.57" y2="1121.7"/><use width="28" height="28" transform="translate(1204 976)" xlink:href="#Interchange"/><line class="cls-7" x1="2184" y1="630" x2="2202" y2="630"/><line class="cls-7" x1="2682" y1="324" x2="2682" y2="360"/><line class="cls-7" x1="2106" y1="1224" x2="2106" y2="1188"/><line class="cls-7" x1="90" y1="36" x2="90" y2="72"/><line class="cls-7" x1="1608" y1="1686" x2="1644" y2="1686"/><line class="cls-18" x1="1152" y1="1584" x2="1140" y2="1596"/><line class="cls-7" x1="648" y1="1164" x2="684" y2="1164"/><line class="cls-19" x1="2298" y1="1704" x2="2298" y2="1668"/><line class="cls-19" x1="2436" y1="1854" x2="2454" y2="1854"/><line class="cls-19" x1="2334.48" y1="1944.48" x2="2358.48" y2="1968.48"/><line class="cls-5" x1="2436" y1="1740" x2="2454" y2="1740"/><path class="cls-1" d="M2403.48,1722.91a12,12,0,1,1-18-10.39v-15.43a12,12,0,1,1,12,0v15.43A12,12,0,0,1,2403.48,1722.91Z"/><line class="cls-18" x1="4218" y1="2436" x2="4218" y2="2472"/></g><g id="Legend"><text class="cls-8" transform="translate(4878 30)">Legend</text><line class="cls-6" x1="4878" y1="60" x2="4962" y2="60"/><line class="cls-3" x1="4878" y1="90" x2="4962" y2="90"/><line class="cls-11" x1="4878" y1="120" x2="4962" y2="120"/><text class="cls-8" transform="translate(4980 66)">Overworld Iceway</text><text class="cls-8" transform="translate(4980 96)"><tspan class="cls-10">W</tspan><tspan x="22.22" y="0">eizenburg Local Railway</tspan></text><text class="cls-8" transform="translate(4980 126)">Nether Iceway</text><text class="cls-8" transform="translate(4878 197.18)">*Iceway from Cat Island to Core is <tspan x="0" y="28.8">currently only 2 blocks wide. Make </tspan><tspan x="0" y="57.6">sure theres no one on that section </tspan><tspan x="0" y="86.4">before entering the icewa</tspan><tspan class="cls-20" x="269.51" y="86.4">y</tspan><tspan x="279.73" y="86.4">.</tspan></text><text/><line class="cls-4" x1="4878" y1="150" x2="4962" y2="150"/><text class="cls-8" transform="translate(4980 156)">Brotway</text></g></g></svg>