<svg xmlns="http://www.w3.org/2000/svg" viewBox="0 0 2244 2106"><defs><style>.cls-1,.cls-11,.cls-19,.cls-2,.cls-21,.cls-3,.cls-4,.cls-6,.cls-7{fill:none;}.cls-1,.cls-17,.cls-20,.cls-6{stroke:#000;}.cls-1,.cls-11,.cls-17,.cls-19,.cls-2,.cls-20,.cls-21,.cls-3,.cls-4,.cls-5,.cls-6,.cls-7{stroke-miterlimit:10;}.cls-1,.cls-19,.cls-2,.cls-20,.cls-21,.cls-5{stroke-width:10px;}.cls-2{stroke:gray;}.cls-19,.cls-3{stroke:#c6009f;}.cls-11,.cls-3,.cls-4,.cls-6{stroke-width:12px;}.cls-21,.cls-4,.cls-5{stroke:#f4eb29;}.cls-7{stroke:#003fff;stroke-width:6px;}.cls-15,.cls-8{font-size:24px;font-family:ArialMT, Arial;}.cls-9{letter-spacing:-0.06em;}.cls-10{letter-spacing:-0.02em;}.cls-11{stroke:#b20000;}.cls-12{fill:#b20000;}.cls-13{letter-spacing:-0.04em;}.cls-14{font-size:21px;}.cls-15{text-decoration:line-through;}.cls-16{letter-spacing:0.04em;}.cls-17,.cls-18,.cls-20{fill:#fff;}.cls-17{stroke-width:4px;}.cls-22{letter-spacing:-0.07em;}</style></defs><g id="Network_Map" data-name="Network Map"><g id="Upgraded_Iceway_Stations" data-name="Upgraded Iceway Stations"><line class="cls-1" x1="1320" y1="1794" x2="1339" y2="1794"/><line class="cls-2" x1="858" y1="1548" x2="858" y2="1566"/></g><g id="Town_1" data-name="Town 1"><path class="cls-3" d="M516,1080v-54a24,24,0,0,0-24-24H414a12,12,0,0,1-12-12V852a12,12,0,0,1,12-12H558a24,24,0,0,1,24,24v9.31a48,48,0,0,1-15,34.9l-13.28,12.54a48,48,0,0,0-15,35.43L540,1080"/></g><g id="Brotway"><path class="cls-4" d="M1194,1518l75.94-75.94a48,48,0,0,0,14.06-33.94V1272c0-13.25-10.75-24-23-24.57H1051"/><line class="cls-5" x1="1242" y1="1470" x2="1254" y2="1482"/></g><g id="Overworld_Iceway" data-name="Overworld Iceway"><line class="cls-6" x1="1434" y1="1632" x2="1314" y2="1632"/><path class="cls-6" d="M1242,354H978a24,24,0,0,0-24,24v744"/><path class="cls-6" d="M1368,1632h-6a24,24,0,0,0-24,24h0"/><path class="cls-6" d="M996,1284H978a24,24,0,0,0-24,24v12"/><line class="cls-6" x1="954" y1="1242" x2="954" y2="1314"/><path class="cls-6" d="M954,1536v6a24,24,0,0,1-24,24H786a24,24,0,0,0-24,24v138"/><path class="cls-6" d="M954,1590h0a24,24,0,0,0-24-24h0"/><polyline class="cls-6" points="954 1260 954 1182 954 1176 954 1152 954 1128 954 1128"/><path class="cls-6" d="M954,972v12a24,24,0,0,1-24,24H858"/><path class="cls-6" d="M954,1044v-12a24,24,0,0,0-24-24H918"/><path class="cls-6" d="M906,1152h24a24,24,0,0,1,24,24v24"/><path class="cls-6" d="M618,1152h18a24,24,0,0,1,24,24v30"/><path class="cls-6" d="M702,1152H684a24,24,0,0,0-24,24v30"/><line class="cls-6" x1="660" y1="1152" x2="660" y2="1248"/><path class="cls-6" d="M642,66a24,24,0,0,1,24,24V522a24,24,0,0,1-24,24H402a24,24,0,0,0-24,24V864l-23.91,15.94A48,48,0,0,1,327.47,888H210a24,24,0,0,0-24,24v102"/><path class="cls-6" d="M954,414V378a24,24,0,0,0-24-24H888"/><path class="cls-6" d="M666,312v18a24,24,0,0,0,24,24h324"/><path class="cls-6" d="M666,402V378a24,24,0,0,1,24-24h18"/><path class="cls-6" d="M1530,1950H1362a24,24,0,0,1-24-24V1656a24,24,0,0,0-24-24H978a24,24,0,0,1-24-24V1308"/><path class="cls-7" d="M1530,1950H1362a24,24,0,0,1-24-24V1656a24,24,0,0,0-24-24H978a24,24,0,0,1-24-24V1308"/><line class="cls-1" x1="1146" y1="510" x2="1146" y2="546"/><path class="cls-6" d="M954,498v6a24,24,0,0,0,24,24h168"/><path class="cls-6" d="M954,552h0a24,24,0,0,1,24-24h0"/><path class="cls-6" d="M954,900V888a24,24,0,0,0-24-24h-6"/><path class="cls-6" d="M954,1116v12a24,24,0,0,1-24,24H402a24,24,0,0,1-24-24V864H930a24,24,0,0,0,24-24v-6"/><path class="cls-6" d="M90,66h24a24,24,0,0,1,24,24v78a24,24,0,0,0,24,24h24"/><line class="cls-6" x1="90" y1="66" x2="642" y2="66"/><line class="cls-7" x1="90" y1="66" x2="642" y2="66"/><path class="cls-6" d="M1242,1284H978a24,24,0,0,1-24-24h0"/><text class="cls-8" transform="translate(492.81 1734)"><tspan class="cls-9">V</tspan><tspan x="14.68" y="0">olpeon</tspan><tspan class="cls-10" x="86.75" y="0">’</tspan><tspan x="91.65" y="0">s Fox Shrine</tspan></text></g><g id="Nether_Iceway" data-name="Nether Iceway"><line class="cls-11" x1="450" y1="840" x2="450" y2="1266"/><polygon class="cls-12" points="425.46 1246.12 429.86 1242.03 449.99 1263.7 470.14 1242.03 474.53 1246.12 449.99 1272.51 425.46 1246.12"/></g><g id="Station_Names" data-name="Station Names"><text class="cls-8" transform="translate(691.76 264)"><tspan class="cls-13">T</tspan><tspan x="13.77" y="0">ransgal</tspan></text><text class="cls-8" transform="translate(486.2 588)"><tspan class="cls-10">V</tspan><tspan x="15.57" y="0">ibska</tspan></text><text class="cls-8" transform="translate(407.31 744)">Gakamine</text><text class="cls-8" transform="translate(236.19 846)"><tspan class="cls-10">W</tspan><tspan x="22.22" y="0">eizenburg</tspan><tspan class="cls-14"><tspan x="4.88" y="25.2">(Enigmatico)</tspan></tspan></text><text class="cls-8" transform="translate(236.19 1008)"><tspan class="cls-10">W</tspan><tspan x="22.22" y="0">eizenburg</tspan><tspan class="cls-14"><tspan x="34.06" y="25.2">(Main)</tspan></tspan></text><text class="cls-8" transform="translate(851.31 648)">Spawn</text><text class="cls-8" transform="translate(1195.97 1224)">Brotburg</text><text class="cls-15" transform="translate(826 1536)">Emilis</text><text class="cls-8" transform="translate(1111.28 1794)">Mainland Icebloom<tspan class="cls-14"><tspan x="23.12" y="25.2">(Guardian Farm)</tspan></tspan></text><text class="cls-8" transform="translate(1445.28 1638)">Portland Icebloom</text><text class="cls-8" transform="translate(307.99 1170)">Delta</text><text class="cls-8" transform="translate(577.31 828)">Craftplacer</text><text class="cls-8" transform="translate(561.97 978)">Hellenion</text><text class="cls-8" transform="translate(497.98 1116)">Jeder</text><text/><text class="cls-8" transform="translate(393.87 822)">Nether Portal</text><text class="cls-8" transform="translate(399.3 1296)">Base at 8k</text><text class="cls-8" transform="translate(691.31 1254)">Isle of Pig</text><text/><text class="cls-8" transform="translate(1213.99 324)">Hans</text><text class="cls-8" transform="translate(799.3 978)">Cat Island*</text><text class="cls-8" transform="translate(41.98 36)">realsn0w</text><text class="cls-8" transform="translate(132 1020)">Isi</text><text class="cls-8" transform="translate(1099.29 1320)"><tspan class="cls-9">V</tspan><tspan x="14.68" y="0">olpeon/</tspan><tspan class="cls-10" x="0.23" y="28.8">A</tspan><tspan x="15.81" y="28.8">vocatto</tspan></text><text class="cls-8" transform="translate(1315.28 1308)">Pinnakle Peak<tspan class="cls-14"><tspan x="46.98" y="25.2">(Fristi)</tspan></tspan></text><text class="cls-8" transform="translate(1314.87 1422)">Mame<tspan class="cls-10" x="66.68" y="0">’</tspan><tspan x="71.58" y="0">s Camp</tspan></text><text class="cls-8" transform="translate(1261.51 1494)">Aety<tspan class="cls-10" x="48.02" y="0">’</tspan><tspan x="52.92" y="0">s</tspan><tspan class="cls-10" x="64.92" y="0"> </tspan><tspan class="cls-13" x="71.16" y="0">T</tspan><tspan x="84.93" y="0">reehut</tspan></text><text class="cls-8" transform="translate(1216.62 1542)">Mame Haus für baum</text><text/><text/><text class="cls-8" transform="translate(991.28 1218)">Lighthouse</text><text class="cls-8" transform="translate(1548 1956)">EpicKitty &amp; GO01</text><text class="cls-8" transform="translate(1049.06 498)">Ambe<tspan class="cls-16" x="62.7" y="0">r</tspan><tspan class="cls-10" x="71.58" y="0">’</tspan><tspan x="76.48" y="0">s Mountain</tspan></text><text class="cls-8" transform="translate(133.99 240)">Ice Farm*</text></g><g id="Station_Paths" data-name="Station Paths"><line class="cls-1" x1="666" y1="258" x2="684" y2="258"/><line class="cls-1" x1="522" y1="546" x2="522" y2="564"/><line class="cls-1" x1="378" y1="738" x2="396" y2="738"/><line class="cls-1" x1="1434" y1="1614" x2="1434" y2="1650"/><path class="cls-17" d="M414,840a12,12,0,0,1-16.43,11.16l-8.41,8.41A12,12,0,1,1,378,852a12.66,12.66,0,0,1,1.64.11l10.48-10.47A11.11,11.11,0,0,1,390,840a12,12,0,0,1,24,0Z"/><path class="cls-18" d="M540,1090a10.07,10.07,0,0,1-8.67-5l-.58-1h-5.5l-.58,1a10,10,0,1,1,0-10l.58,1h5.5l.58-1a10,10,0,1,1,8.67,15Z"/><path d="M540,1072a8,8,0,1,1-6.94,12l-1.15-2h-7.82l-1.15,2a8,8,0,1,1,0-8l1.15,2h7.82l1.15-2a8,8,0,0,1,6.94-4m0-4a12,12,0,0,0-10.4,6h-3.2a12,12,0,1,0,0,12h3.2a12,12,0,1,0,10.4-18Z"/><path class="cls-18" d="M402,1012a10.07,10.07,0,0,1-8.67-5l-.58-1h-5.5l-.58,1a10,10,0,1,1,0-10l.58,1h5.5l.58-1a10,10,0,1,1,8.67,15Z"/><path d="M402,994a8,8,0,1,1-6.94,12l-1.15-2h-7.82l-1.15,2a8,8,0,1,1,0-8l1.15,2h7.82l1.15-2a8,8,0,0,1,6.94-4m0-4a12,12,0,0,0-10.4,6h-3.2a12,12,0,1,0,0,12h3.2A12,12,0,1,0,402,990Z"/><line class="cls-19" x1="564" y1="822" x2="564" y2="840"/><line class="cls-19" x1="536.57" y1="971.7" x2="554.57" y2="971.7"/><circle class="cls-17" cx="450" cy="840" r="12"/><line class="cls-1" x1="936" y1="642" x2="954" y2="642"/><line class="cls-1" x1="1242" y1="336" x2="1242" y2="372"/><line class="cls-1" x1="858" y1="1026" x2="858" y2="990"/><line class="cls-1" x1="90" y1="48" x2="90" y2="84"/><line class="cls-1" x1="642" y1="1248" x2="678" y2="1248"/><line class="cls-20" x1="384" y1="1146" x2="372" y2="1158"/><line class="cls-1" x1="168" y1="1014" x2="204" y2="1014"/><line class="cls-21" x1="1284" y1="1416" x2="1302" y2="1416"/><line class="cls-21" x1="1182.48" y1="1506.48" x2="1206.48" y2="1530.48"/><line class="cls-5" x1="1284" y1="1302" x2="1302" y2="1302"/><path class="cls-17" d="M1251.48,1284.91a12,12,0,1,1-18-10.39v-15.43a12,12,0,1,1,12,0v15.43A12,12,0,0,1,1251.48,1284.91Z"/><line class="cls-20" x1="1530" y1="1932" x2="1530" y2="1968"/><line class="cls-21" x1="1146" y1="1266" x2="1146" y2="1248"/><line class="cls-21" x1="1050" y1="1230" x2="1050" y2="1266"/><line class="cls-1" x1="186" y1="174" x2="186" y2="210"/><line class="cls-1" x1="744" y1="1728" x2="780" y2="1728"/></g><g id="Legend"><text class="cls-8" transform="translate(1812 42)">Legend</text><line class="cls-6" x1="1812" y1="72" x2="1896" y2="72"/><line class="cls-3" x1="1812" y1="132" x2="1896" y2="132"/><line class="cls-11" x1="1812" y1="162" x2="1896" y2="162"/><text class="cls-8" transform="translate(1914 78)">Overworld Iceway</text><text class="cls-8" transform="translate(1914 138)"><tspan class="cls-10">W</tspan><tspan x="22.22" y="0">eizenburg Local Railway</tspan></text><text class="cls-8" transform="translate(1914 168)">Nether Iceway</text><text class="cls-8" transform="translate(1812 233.18)">*Iceway sections: Cat Island-Core, <tspan x="0" y="28.8">Ice Farm-realsn0w are currently </tspan><tspan x="0" y="57.6">only 2 blocks wide. Make sure </tspan><tspan x="0" y="86.4">there</tspan><tspan class="cls-10" x="54.7" y="86.4">’</tspan><tspan x="59.6" y="86.4">s no one on those sections </tspan><tspan x="0" y="115.2">before entering the icewa</tspan><tspan class="cls-22" x="269.51" y="115.2">y</tspan><tspan x="279.73" y="115.2">.</tspan></text><line class="cls-4" x1="1812" y1="192" x2="1896" y2="192"/><text class="cls-8" transform="translate(1914 198)">Brotway</text><line class="cls-6" x1="1812" y1="102" x2="1896" y2="102"/><line class="cls-7" x1="1812" y1="102" x2="1896" y2="102"/><text class="cls-8" transform="translate(1914 108)">Upgraded Overworld Iceway</text></g></g></svg>