<svg xmlns="http://www.w3.org/2000/svg" xmlns:xlink="http://www.w3.org/1999/xlink" viewBox="0 0 5274 2598"><defs><style>.cls-1,.cls-14,.cls-2{fill:#fff;}.cls-1,.cls-12,.cls-14,.cls-7{stroke:#000;}.cls-1,.cls-12,.cls-13,.cls-14,.cls-3,.cls-4,.cls-7,.cls-8{stroke-miterlimit:10;}.cls-1{stroke-width:4px;}.cls-12,.cls-13,.cls-3,.cls-4,.cls-7,.cls-8{fill:none;}.cls-13,.cls-3{stroke:#c6009f;}.cls-3,.cls-4,.cls-7,.cls-8{stroke-width:12px;}.cls-4{stroke:#666;}.cls-10,.cls-5{font-size:24px;font-family:ArialMT, Arial;}.cls-5{fill:gray;}.cls-6{letter-spacing:-0.02em;}.cls-8{stroke:#b20000;}.cls-9{fill:#b20000;}.cls-11{letter-spacing:-0.04em;}.cls-12,.cls-13,.cls-14{stroke-width:10px;}.cls-15{letter-spacing:-0.07em;}</style><symbol id="New_Symbol_1" data-name="New Symbol 1" viewBox="0 0 48 24"><path class="cls-2" d="M36,22a10.07,10.07,0,0,1-8.67-5l-.58-1h-5.5l-.58,1A10,10,0,1,1,12,2a10.07,10.07,0,0,1,8.67,5l.58,1h5.5l.58-1A10,10,0,1,1,36,22Z"/><path d="M36,4a8,8,0,1,1-6.94,12l-1.15-2H20.09l-1.15,2a8,8,0,1,1,0-8l1.15,2h7.82l1.15-2A8,8,0,0,1,36,4m0-4A12,12,0,0,0,25.6,6H22.4a12,12,0,1,0,0,12h3.2A12,12,0,1,0,36,0Z"/></symbol><symbol id="Interchange" data-name="Interchange" viewBox="0 0 28 28"><circle class="cls-1" cx="14" cy="14" r="12"/></symbol></defs><g id="Town_1" data-name="Town 1"><path class="cls-3" d="M2052,1518v-54a24,24,0,0,0-24-24h-78a12,12,0,0,1-12-12V1290a12,12,0,0,1,12-12h144a24,24,0,0,1,24,24v9.31a48,48,0,0,1-15.05,34.9l-13.28,12.54a48,48,0,0,0-15.05,35.43L2076,1518"/></g><g id="Planned"><path class="cls-4" d="M2970,690V654a24,24,0,0,0-24-24h-42"/><path class="cls-4" d="M2202,588v18a24,24,0,0,0,24,24h804"/><path class="cls-4" d="M2202,678V654a24,24,0,0,1,24-24h18"/><text class="cls-5" transform="translate(2364 660)">(Planned extension, <tspan class="cls-6" x="218.81" y="0">W</tspan><tspan x="241.03" y="0">eizenburg bypass)</tspan></text></g><g id="Overworld_Iceway" data-name="Overworld Iceway"><path class="cls-7" d="M1914,1302v552a24,24,0,0,0,24,24H2946a24,24,0,0,0,24-24V1302H1914Z"/><path class="cls-7" d="M3450,630H2994a24,24,0,0,0-24,24v648h0"/><path class="cls-7" d="M2940,1302h6a24,24,0,0,0,24-24v48a24,24,0,0,0-24-24Z"/><path class="cls-7" d="M4284,2262h6a24,24,0,0,1,24,24v228"/><path class="cls-7" d="M4344,2262h-6a24,24,0,0,0-24,24h0"/><path class="cls-7" d="M2970,2184v6a24,24,0,0,1-24,24h-72"/><path class="cls-7" d="M2970,2238h0a24,24,0,0,0-24-24h0"/><path class="cls-7" d="M2970,2028v18a24,24,0,0,0,24,24h0a24,24,0,0,0-24,24v144a24,24,0,0,0,24,24H4410"/><polyline class="cls-7" points="2970 2166 2970 2070 2970 1908 2970 1902 2970 1878 2970 1854 2970 1854"/><path class="cls-7" d="M2970,1458v12a24,24,0,0,1-24,24h-72"/><path class="cls-7" d="M2970,1530v-12a24,24,0,0,0-24-24h-12"/><path class="cls-7" d="M2922,1878h24a24,24,0,0,1,24,24v24"/><line class="cls-7" x1="3066" y1="2070" x2="2970" y2="2070"/><path class="cls-7" d="M2352,1878h18a24,24,0,0,1,24,24v30"/><path class="cls-7" d="M2436,1878h-18a24,24,0,0,0-24,24v30"/><line class="cls-7" x1="2394" y1="1878" x2="2394" y2="1974"/><path class="cls-7" d="M1434,1452V1350a24,24,0,0,1,24-24h405.47a48,48,0,0,0,26.62-8.06L1914,1302V846a24,24,0,0,1,24-24h240a24,24,0,0,0,24-24V366a24,24,0,0,0-24-24H858"/></g><g id="Nether_Iceway" data-name="Nether Iceway"><line class="cls-8" x1="1986" y1="1278" x2="1986" y2="1578"/><polygon class="cls-9" points="1961.46 1558.12 1965.86 1554.03 1985.99 1575.7 2006.14 1554.03 2010.53 1558.12 1985.99 1584.51 1961.46 1558.12"/></g><g id="Station_Names" data-name="Station Names"><text class="cls-10" transform="translate(2232 540)"><tspan class="cls-11">T</tspan><tspan x="13.77" y="0">ransgal</tspan></text><text class="cls-10" transform="translate(2022 864)"><tspan class="cls-6">V</tspan><tspan x="15.57" y="0">ibska</tspan></text><text class="cls-10" transform="translate(1944 1020)">Gakamine</text><text class="cls-10" transform="translate(1770 1284)">Enigmatico</text><text class="cls-10" transform="translate(1764 1446)"><tspan class="cls-6">W</tspan><tspan x="22.22" y="0">eizenburg</tspan></text><text class="cls-10" transform="translate(2868 924)">Spawn</text><text class="cls-10" transform="translate(3084 2076)">Brotburg</text><text class="cls-10" transform="translate(2758 2214)">Emilis<tspan x="-44.03" y="28.8">(Not in use rn)</tspan></text><text class="cls-10" transform="translate(4213.28 2544)">Mainland Icebloom<tspan x="12.04" y="28.8">(Guardian Farm)</tspan></text><text class="cls-10" transform="translate(4421.28 2268)">Portland Icebloom</text><text class="cls-10" transform="translate(1843.99 1896)">Delta</text><text class="cls-10" transform="translate(2112 1266)">Craftplacer</text><text class="cls-10" transform="translate(2094 1416)">Hellenion</text><text class="cls-10" transform="translate(2034 1554)">Jeder</text><text/><text class="cls-10" transform="translate(1938 1260)">Nether Portal</text><text class="cls-10" transform="translate(1932 1608)">Base at 8k</text><text class="cls-10" transform="translate(2340 2004)">Isle of Pig</text><text/><text class="cls-10" transform="translate(3462 636)">Hans</text><text class="cls-10" transform="translate(2748 1500)">Cat Island*</text><text class="cls-10" transform="translate(810 312)">realsn0w</text><text class="cls-10" transform="translate(1422 1482)">Isi</text></g><g id="Station_Paths" data-name="Station Paths"><line class="cls-12" x1="2202" y1="534" x2="2220" y2="534"/><line class="cls-12" x1="2058" y1="822" x2="2058" y2="840"/><line class="cls-12" x1="1914" y1="1014" x2="1932" y2="1014"/><line class="cls-12" x1="3066" y1="2052" x2="3066" y2="2088"/><line class="cls-12" x1="2874" y1="2196" x2="2874" y2="2232"/><line class="cls-12" x1="4410" y1="2244" x2="4410" y2="2280"/><line class="cls-12" x1="4296" y1="2514" x2="4332" y2="2514"/><path class="cls-1" d="M1950,1278a12,12,0,0,1-16.43,11.16l-8.41,8.41A12,12,0,1,1,1914,1290a12.66,12.66,0,0,1,1.64.11l10.48-10.47a11.11,11.11,0,0,1-.12-1.64,12,12,0,0,1,24,0Z"/><use width="48" height="24" transform="translate(2040 1506)" xlink:href="#New_Symbol_1"/><use width="48" height="24" transform="translate(1902 1428)" xlink:href="#New_Symbol_1"/><line class="cls-13" x1="2100" y1="1260" x2="2100" y2="1278"/><line class="cls-13" x1="2072.57" y1="1409.7" x2="2090.57" y2="1409.7"/><use width="28" height="28" transform="translate(1972 1264)" xlink:href="#Interchange"/><line class="cls-12" x1="2952" y1="918" x2="2970" y2="918"/><line class="cls-12" x1="3450" y1="612" x2="3450" y2="648"/><line class="cls-12" x1="2874" y1="1512" x2="2874" y2="1476"/><line class="cls-12" x1="858" y1="324" x2="858" y2="360"/><line class="cls-12" x1="2376" y1="1974" x2="2412" y2="1974"/><line class="cls-14" x1="1920" y1="1872" x2="1908" y2="1884"/><line class="cls-12" x1="1416" y1="1452" x2="1452" y2="1452"/></g><g id="Legend"><text class="cls-10" transform="translate(4878 30)">Legend</text><line class="cls-7" x1="4878" y1="60" x2="4962" y2="60"/><line class="cls-3" x1="4878" y1="90" x2="4962" y2="90"/><line class="cls-8" x1="4878" y1="120" x2="4962" y2="120"/><text class="cls-10" transform="translate(4980 66)">Overworld Iceway</text><text class="cls-10" transform="translate(4980 96)"><tspan class="cls-6">W</tspan><tspan x="22.22" y="0">eizenburg Local Railway</tspan></text><text class="cls-10" transform="translate(4980 126)">Nether Iceway</text><text class="cls-10" transform="translate(4878 166.18)">*Iceway from Cat Island to Core is <tspan x="0" y="28.8">currently only 2 blocks wide. Make </tspan><tspan x="0" y="57.6">sure theres no one on that section </tspan><tspan x="0" y="86.4">before entering the icewa</tspan><tspan class="cls-15" x="269.51" y="86.4">y</tspan><tspan x="279.73" y="86.4">.</tspan></text><text/></g></svg>