<svg xmlns="http://www.w3.org/2000/svg" xmlns:xlink="http://www.w3.org/1999/xlink" viewBox="0 0 3840 2160"><defs><style>.cls-1,.cls-3{fill:#fff;}.cls-1,.cls-12,.cls-2{stroke:#000;}.cls-1,.cls-12,.cls-13,.cls-14,.cls-2,.cls-4,.cls-5,.cls-6{stroke-miterlimit:10;}.cls-1{stroke-width:4px;}.cls-12,.cls-13,.cls-14,.cls-2,.cls-4,.cls-5,.cls-6{fill:none;}.cls-2,.cls-4,.cls-5,.cls-6{stroke-width:12px;}.cls-14,.cls-4{stroke:#ff69ff;}.cls-13,.cls-5{stroke:#c6009f;}.cls-6{stroke:#b20000;}.cls-7{fill:#b20000;}.cls-8{font-size:24px;font-family:ArialMT, Arial;}.cls-9{letter-spacing:-0.04em;}.cls-10{letter-spacing:-0.02em;}.cls-11{letter-spacing:-0.11em;}.cls-12,.cls-13,.cls-14{stroke-width:10px;}</style><symbol id="New_Symbol" data-name="New Symbol" viewBox="0 0 36 36"><path class="cls-2" d="M0,6H18A12,12,0,0,1,30,18V36"/></symbol><symbol id="New_Symbol_1" data-name="New Symbol 1" viewBox="0 0 48 24"><path class="cls-3" d="M36,22a10.07,10.07,0,0,1-8.67-5l-.58-1h-5.5l-.58,1A10,10,0,1,1,12,2a10.07,10.07,0,0,1,8.67,5l.58,1h5.5l.58-1A10,10,0,1,1,36,22Z"/><path d="M36,4a8,8,0,1,1-6.94,12l-1.15-2H20.09l-1.15,2a8,8,0,1,1,0-8l1.15,2h7.82l1.15-2A8,8,0,0,1,36,4m0-4A12,12,0,0,0,25.6,6H22.4a12,12,0,1,0,0,12h3.2A12,12,0,1,0,36,0Z"/></symbol><symbol id="Interchange" data-name="Interchange" viewBox="0 0 28 28"><circle class="cls-1" cx="14" cy="14" r="12"/></symbol></defs><g id="Isle_of_Pig_Ferry" data-name="Isle of Pig Ferry"><path class="cls-4" d="M480,1434l22.8,27.36a24,24,0,0,0,18.44,8.64H618"/></g><g id="Town_1" data-name="Town 1"><path class="cls-5" d="M618,1080v-66a12,12,0,0,0-12-12H516a12,12,0,0,1-12-12V852a12,12,0,0,1,12-12H672a12,12,0,0,1,12,12v31.65a24,24,0,0,1-7.52,17.45L648,928a24,24,0,0,0-7.52,17.72L642,1080"/></g><g id="Overworld_Iceway" data-name="Overworld Iceway"><path class="cls-2" d="M480,864v564a12,12,0,0,0,12,12H1536V864H480Z"/><path class="cls-2" d="M768,96V372a12,12,0,0,1-12,12H492a12,12,0,0,0-12,12V864"/><path class="cls-2" d="M1536,828V204a12,12,0,0,1,12-12h468"/><path class="cls-2" d="M1506,864h18a12,12,0,0,0,12-12v24a12,12,0,0,0-12-12Z"/><path class="cls-2" d="M2850,1824h18a12,12,0,0,1,12,12v240"/><path class="cls-2" d="M2910,1824h-18a12,12,0,0,0-12,12v12"/><path class="cls-2" d="M1536,1758v6a12,12,0,0,1-12,12h-84"/><path class="cls-2" d="M1536,1794v-6a12,12,0,0,0-12-12h-6"/><path class="cls-2" d="M1536,1614v6a12,12,0,0,0,12,12h0a12,12,0,0,0-12,12v168a12,12,0,0,0,12,12H2976"/><path class="cls-2" d="M1632,1632h-96V1428a12,12,0,0,1-12,12h-12"/><use width="36" height="36" transform="translate(1506 1434)" xlink:href="#New_Symbol"/></g><g id="Nether_Iceway" data-name="Nether Iceway"><line class="cls-6" x1="552" y1="840" x2="552" y2="1140"/><polygon class="cls-7" points="527.46 1120.12 531.86 1116.03 551.99 1137.7 572.14 1116.03 576.53 1120.12 551.99 1146.51 527.46 1120.12"/></g><g id="Station_Names" data-name="Station Names"><text class="cls-8" transform="translate(720 78)"><tspan class="cls-9">T</tspan><tspan x="13.77" y="0">ransgal</tspan></text><text class="cls-8" transform="translate(588 426)"><tspan class="cls-10">V</tspan><tspan x="15.57" y="0">ibska</tspan></text><text class="cls-8" transform="translate(510 582)">Gakamine</text><text class="cls-8" transform="translate(336 870)">Enigmatico</text><text class="cls-8" transform="translate(372 1008)"><tspan class="cls-11">T</tspan><tspan x="12" y="0">own 1</tspan></text><text class="cls-8" transform="translate(1434 486)">Spawn</text><text class="cls-8" transform="translate(1650 1638)">Brotburg-<tspan class="cls-9" x="100.04" y="0">T</tspan><tspan x="113.81" y="0">ulpenveld</tspan></text><text class="cls-8" transform="translate(1324 1776)">Emilis<tspan x="-44.03" y="28.8">(Not in use rn)</tspan></text><text class="cls-8" transform="translate(2799.3 2106)">Guardian Farm</text><text class="cls-8" transform="translate(2998.62 1830)">babyPrincette</text><text class="cls-8" transform="translate(427.99 1476)">Delta</text><text class="cls-8" transform="translate(678 828)">Craftplacer</text><text class="cls-8" transform="translate(660 978)">Hellenion</text><text class="cls-8" transform="translate(600 1116)">Jeder</text><text/><text class="cls-8" transform="translate(504 822)">Nether Portal</text><text class="cls-8" transform="translate(498 1170)">Base at 8k</text><text class="cls-8" transform="translate(630 1476)">Isle of Pig</text><text/><text class="cls-8" transform="translate(2028 198)">Hans</text></g><g id="Station_Paths" data-name="Station Paths"><line class="cls-12" x1="750" y1="96" x2="786" y2="96"/><line class="cls-12" x1="624" y1="384" x2="624" y2="402"/><line class="cls-12" x1="480" y1="576" x2="498" y2="576"/><line class="cls-12" x1="1632" y1="1614" x2="1632" y2="1650"/><line class="cls-12" x1="1440" y1="1758" x2="1440" y2="1794"/><line class="cls-12" x1="2976" y1="1806" x2="2976" y2="1842"/><line class="cls-12" x1="2862" y1="2076" x2="2898" y2="2076"/><path class="cls-1" d="M516,840a12,12,0,0,1-16.43,11.16l-8.41,8.41A12,12,0,1,1,480,852a12.66,12.66,0,0,1,1.64.11l10.48-10.47A11.11,11.11,0,0,1,492,840a12,12,0,0,1,24,0Z"/><use width="48" height="24" transform="translate(606 1068)" xlink:href="#New_Symbol_1"/><use width="48" height="24" transform="translate(468 990)" xlink:href="#New_Symbol_1"/><line class="cls-13" x1="666" y1="822" x2="666" y2="840"/><line class="cls-13" x1="638.57" y1="971.7" x2="656.57" y2="971.7"/><use width="28" height="28" transform="translate(538 826)" xlink:href="#Interchange"/><use width="28" height="28" transform="translate(468 1422)" xlink:href="#Interchange"/><line class="cls-14" x1="618" y1="1452" x2="618" y2="1488"/><line class="cls-12" x1="1518" y1="480" x2="1536" y2="480"/><line class="cls-12" x1="2016" y1="174" x2="2016" y2="210"/></g><g id="Legend"><text class="cls-8" transform="translate(3456 42)">Legend</text><line class="cls-2" x1="3456" y1="72" x2="3540" y2="72"/><line class="cls-5" x1="3456" y1="102" x2="3540" y2="102"/><line class="cls-6" x1="3456" y1="132" x2="3540" y2="132"/><line class="cls-4" x1="3456" y1="162" x2="3540" y2="162"/><text class="cls-8" transform="translate(3558 78)">Overworld Iceway</text><text class="cls-8" transform="translate(3558 108)"><tspan class="cls-11">T</tspan><tspan x="12" y="0">own 1 Local Railway</tspan></text><text class="cls-8" transform="translate(3558 138)">Nether Iceway</text><text class="cls-8" transform="translate(3558 168)">Isle of Pig Ferry</text></g></svg>