<svg id="Layer_1" data-name="Layer 1" xmlns="http://www.w3.org/2000/svg" xmlns:xlink="http://www.w3.org/1999/xlink" viewBox="0 0 3840 2160"><defs><style>.cls-1,.cls-2{fill:none;}.cls-1,.cls-2,.cls-3,.cls-4{stroke:#000;stroke-miterlimit:10;}.cls-1{stroke-width:12px;}.cls-2,.cls-4{stroke-width:10px;}.cls-3,.cls-4{fill:#fff;}.cls-3{stroke-width:4px;}.cls-5{font-size:24px;font-family:ArialMT, Arial;}.cls-6{letter-spacing:-0.04em;}.cls-7{letter-spacing:-0.02em;}.cls-8{letter-spacing:-0.11em;}</style><symbol id="New_Symbol" data-name="New Symbol" viewBox="0 0 36 36"><path class="cls-1" d="M0,6H18A12,12,0,0,1,30,18V36"/></symbol></defs><path class="cls-1" d="M480,864v564a12,12,0,0,0,12,12H1536V864H480Z"/><path class="cls-1" d="M768,96V372a12,12,0,0,1-12,12H492a12,12,0,0,0-12,12V864"/><line class="cls-2" x1="750" y1="96" x2="786" y2="96"/><line class="cls-2" x1="624" y1="384" x2="624" y2="402"/><line class="cls-2" x1="480" y1="576" x2="498" y2="576"/><line class="cls-2" x1="1518" y1="480" x2="1554" y2="480"/><line class="cls-2" x1="1632" y1="1614" x2="1632" y2="1650"/><line class="cls-2" x1="1440" y1="1752" x2="1440" y2="1800"/><line class="cls-2" x1="2976" y1="1806" x2="2976" y2="1842"/><line class="cls-2" x1="2862" y1="2076" x2="2898" y2="2076"/><polyline class="cls-1" points="1536 828 1536 864 1536 480"/><path class="cls-1" d="M1506,864h18a12,12,0,0,0,12-12v24a12,12,0,0,0-12-12Z"/><path class="cls-1" d="M2850,1824h18a12,12,0,0,1,12,12v240"/><path class="cls-1" d="M2910,1824h-18a12,12,0,0,0-12,12v12"/><path class="cls-1" d="M1536,1758v6a12,12,0,0,1-12,12h-84"/><path class="cls-1" d="M1536,1794v-6a12,12,0,0,0-12-12h-6"/><path class="cls-1" d="M1536,1614v6a12,12,0,0,0,12,12h0a12,12,0,0,0-12,12v168a12,12,0,0,0,12,12H2976"/><path class="cls-1" d="M1632,1632h-96V1428a12,12,0,0,1-12,12h-12"/><use width="36" height="36" transform="translate(1506 1434)" xlink:href="#New_Symbol"/><circle class="cls-3" cx="480" cy="864" r="12"/><line class="cls-4" x1="480" y1="930" x2="462" y2="930"/><text class="cls-5" transform="translate(720 78)"><tspan class="cls-6">T</tspan><tspan x="13.77" y="0">ransgal</tspan></text><text class="cls-5" transform="translate(588 426)"><tspan class="cls-7">V</tspan><tspan x="15.57" y="0">ibska</tspan></text><text class="cls-5" transform="translate(510 582)">Lorem ipsum</text><text class="cls-5" transform="translate(336 870)">Enigmatico</text><text class="cls-5" transform="translate(372 936)"><tspan class="cls-8">T</tspan><tspan x="12" y="0">own 1</tspan></text><text class="cls-5" transform="translate(1500 462)">Spawn</text><text class="cls-5" transform="translate(1650 1638)">Brotburg-<tspan class="cls-6" x="100.04" y="0">T</tspan><tspan x="113.81" y="0">ulpenveld</tspan></text><text class="cls-5" transform="translate(1324 1776)">Emilis<tspan x="-44.03" y="28.8">(Not in use rn)</tspan></text><text class="cls-5" transform="translate(2799.3 2106)">Guardian Farm</text><text class="cls-5" transform="translate(2998.62 1830)">babyPrincette</text><text class="cls-5" transform="translate(427.99 1476)">Delta</text><line class="cls-2" x1="486" y1="1434" x2="468" y2="1452"/></svg>