<svg xmlns="http://www.w3.org/2000/svg" viewBox="0 0 2244 2106"><defs><style>.cls-1,.cls-17,.cls-19,.cls-2,.cls-4,.cls-5,.cls-9{fill:none;}.cls-1,.cls-17{stroke:#c6009f;}.cls-1,.cls-15,.cls-17,.cls-18,.cls-19,.cls-2,.cls-3,.cls-4,.cls-5,.cls-9{stroke-miterlimit:10;}.cls-1,.cls-2,.cls-4,.cls-9{stroke-width:12px;}.cls-19,.cls-2,.cls-3{stroke:#f4eb29;}.cls-17,.cls-18,.cls-19,.cls-3,.cls-5{stroke-width:10px;}.cls-15,.cls-18,.cls-4,.cls-5{stroke:#000;}.cls-13,.cls-6{font-size:24px;font-family:ArialMT, Arial;}.cls-7{letter-spacing:0.04em;}.cls-8{letter-spacing:-0.02em;}.cls-9{stroke:#b20000;}.cls-10{fill:#b20000;}.cls-11{letter-spacing:-0.04em;}.cls-12{font-size:16px;}.cls-13{text-decoration:line-through;}.cls-14{letter-spacing:-0.06em;}.cls-15,.cls-16,.cls-18{fill:#fff;}.cls-15{stroke-width:4px;}.cls-20{letter-spacing:-0.07em;}</style></defs><g id="Network_Map" data-name="Network Map"><g id="Town_1" data-name="Town 1"><path class="cls-1" d="M522,1068v-54a24,24,0,0,0-24-24H420a12,12,0,0,1-12-12V840a12,12,0,0,1,12-12H564a24,24,0,0,1,24,24v9.31a48,48,0,0,1-15,34.9l-13.28,12.54a48,48,0,0,0-15,35.43L546,1068"/></g><g id="Brotway"><path class="cls-2" d="M1098,1548l75.94-75.94a48,48,0,0,0,14.06-33.94V1302a24,24,0,0,0-24-24H1050"/><line class="cls-3" x1="1146" y1="1500" x2="1158" y2="1512"/></g><g id="Overworld_Iceway" data-name="Overworld Iceway"><path class="cls-4" d="M1242,342H978a24,24,0,0,0-24,24v834"/><path class="cls-4" d="M1368,1662h-6a24,24,0,0,0-24,24h0"/><path class="cls-4" d="M954,1566v6a24,24,0,0,1-24,24H858"/><path class="cls-4" d="M954,1620h0a24,24,0,0,0-24-24h0"/><path class="cls-4" d="M954,1332v-42a24,24,0,0,0,24,24h0a24,24,0,0,0-24,24v300a24,24,0,0,0,24,24h456"/><polyline class="cls-4" points="954 1470 954 1314 954 1212 954 1206 954 1182 954 1158 954 1158"/><path class="cls-4" d="M954,1008v12a24,24,0,0,1-24,24H858"/><path class="cls-4" d="M954,1080v-12a24,24,0,0,0-24-24H918"/><path class="cls-4" d="M906,1182h24a24,24,0,0,1,24,24v24"/><line class="cls-4" x1="1146" y1="1314" x2="954" y2="1314"/><path class="cls-4" d="M624,1182h18a24,24,0,0,1,24,24v30"/><path class="cls-4" d="M708,1182H690a24,24,0,0,0-24,24v30"/><line class="cls-4" x1="666" y1="1182" x2="666" y2="1278"/><path class="cls-4" d="M192,1002V900a24,24,0,0,1,24-24H333.47a48,48,0,0,0,26.62-8.06L384,852V558a24,24,0,0,1,24-24H648a24,24,0,0,0,24-24V78a24,24,0,0,0-24-24H96"/><path class="cls-4" d="M954,402V366a24,24,0,0,0-24-24H888"/><path class="cls-4" d="M672,300v18a24,24,0,0,0,24,24h318"/><path class="cls-4" d="M672,390V366a24,24,0,0,1,24-24h18"/><path class="cls-4" d="M1530,1980H1362a24,24,0,0,1-24-24V1686a24,24,0,0,0-24-24h-66"/><line class="cls-5" x1="1146" y1="498" x2="1146" y2="534"/><text class="cls-6" transform="translate(1049.06 486)">Ambe<tspan class="cls-7" x="62.7" y="0">r</tspan><tspan class="cls-8" x="71.58" y="0">’</tspan><tspan x="76.48" y="0">s Mountain</tspan></text><path class="cls-4" d="M954,486v6a24,24,0,0,0,24,24h168"/><path class="cls-4" d="M954,540h0a24,24,0,0,1,24-24h0"/><path class="cls-4" d="M954,888V876a24,24,0,0,0-24-24h-6"/><path class="cls-4" d="M954,1146v12a24,24,0,0,1-24,24H408a24,24,0,0,1-24-24V852H930a24,24,0,0,0,24-24v-6"/></g><g id="Nether_Iceway" data-name="Nether Iceway"><line class="cls-9" x1="456" y1="828" x2="456" y2="1128"/><polygon class="cls-10" points="431.46 1108.12 435.86 1104.03 455.99 1125.7 476.14 1104.03 480.53 1108.12 455.99 1134.51 431.46 1108.12"/></g><g id="Station_Names" data-name="Station Names"><text class="cls-6" transform="translate(697.76 252)"><tspan class="cls-11">T</tspan><tspan x="13.77" y="0">ransgal</tspan></text><text class="cls-6" transform="translate(492.2 576)"><tspan class="cls-8">V</tspan><tspan x="15.57" y="0">ibska</tspan></text><text class="cls-6" transform="translate(413.31 732)">Gakamine</text><text class="cls-6" transform="translate(242.19 834)"><tspan class="cls-8">W</tspan><tspan x="22.22" y="0">eizenburg</tspan><tspan class="cls-12"><tspan x="18.91" y="19.2">(Enigmatico)</tspan></tspan></text><text class="cls-6" transform="translate(242.19 996)"><tspan class="cls-8">W</tspan><tspan x="22.22" y="0">eizenburg</tspan><tspan class="cls-12"><tspan x="41.15" y="19.2">(Main)</tspan></tspan></text><text class="cls-6" transform="translate(851.31 636)">Spawn</text><text class="cls-6" transform="translate(1093.97 1254)">Brotburg</text><text class="cls-13" transform="translate(826 1566)">Emilis</text><text class="cls-6" transform="translate(1111.28 1824)">Mainland Icebloom<tspan class="cls-12"><tspan x="41.6" y="19.2">(Guardian Farm)</tspan></tspan></text><text class="cls-6" transform="translate(1445.28 1668)">Portland Icebloom</text><text class="cls-6" transform="translate(313.99 1200)">Delta</text><text class="cls-6" transform="translate(583.31 816)">Craftplacer</text><text class="cls-6" transform="translate(567.97 966)">Hellenion</text><text class="cls-6" transform="translate(503.98 1104)">Jeder</text><text/><text class="cls-6" transform="translate(399.87 810)">Nether Portal</text><text class="cls-6" transform="translate(405.3 1158)">Base at 8k</text><text class="cls-6" transform="translate(529.31 1284)">Isle of Pig</text><text/><text class="cls-6" transform="translate(1213.99 312)">Hans</text><text class="cls-6" transform="translate(799.3 1014)">Cat Island*</text><text class="cls-6" transform="translate(47.98 102)">realsn0w</text><text class="cls-6" transform="translate(138 1008)">Isi</text><text class="cls-6" transform="translate(985.29 1224)"><tspan class="cls-14">V</tspan><tspan x="14.68" y="0">olpeon/</tspan><tspan class="cls-8" x="0.23" y="28.8">A</tspan><tspan x="15.81" y="28.8">vocatto</tspan></text><text class="cls-6" transform="translate(1219.28 1338)">Pinnakle Peak<tspan class="cls-12"><tspan x="54.06" y="19.2">(Fristi)</tspan></tspan></text><text class="cls-6" transform="translate(1218.87 1452)">Mame<tspan class="cls-8" x="66.68" y="0">’</tspan><tspan x="71.58" y="0">s Camp</tspan></text><text class="cls-6" transform="translate(1165.51 1524)">Aety<tspan class="cls-8" x="48.02" y="0">’</tspan><tspan x="52.92" y="0">s</tspan><tspan class="cls-8" x="64.92" y="0"> </tspan><tspan class="cls-11" x="71.16" y="0">T</tspan><tspan x="84.93" y="0">reehut</tspan></text><text class="cls-6" transform="translate(1542 1986)">EpicKitty</text><text class="cls-6" transform="translate(1120.62 1572)">Mame Haus für baum</text><text/><text/></g><g id="Station_Paths" data-name="Station Paths"><line class="cls-5" x1="672" y1="246" x2="690" y2="246"/><line class="cls-5" x1="528" y1="534" x2="528" y2="552"/><line class="cls-5" x1="384" y1="726" x2="402" y2="726"/><line class="cls-5" x1="858" y1="1578" x2="858" y2="1614"/><line class="cls-5" x1="1434" y1="1644" x2="1434" y2="1680"/><line class="cls-5" x1="1320" y1="1824" x2="1339" y2="1824"/><path class="cls-15" d="M420,828a12,12,0,0,1-16.43,11.16l-8.41,8.41A12,12,0,1,1,384,840a12.66,12.66,0,0,1,1.64.11l10.48-10.47A11.11,11.11,0,0,1,396,828a12,12,0,0,1,24,0Z"/><path class="cls-16" d="M546,1078a10.07,10.07,0,0,1-8.67-5l-.58-1h-5.5l-.58,1a10,10,0,1,1,0-10l.58,1h5.5l.58-1a10,10,0,1,1,8.67,15Z"/><path d="M546,1060a8,8,0,1,1-6.94,12l-1.15-2h-7.82l-1.15,2a8,8,0,1,1,0-8l1.15,2h7.82l1.15-2a8,8,0,0,1,6.94-4m0-4a12,12,0,0,0-10.4,6h-3.2a12,12,0,1,0,0,12h3.2a12,12,0,1,0,10.4-18Z"/><path class="cls-16" d="M408,1000a10.07,10.07,0,0,1-8.67-5l-.58-1h-5.5l-.58,1a10,10,0,1,1,0-10l.58,1h5.5l.58-1a10,10,0,1,1,8.67,15Z"/><path d="M408,982a8,8,0,1,1-6.94,12l-1.15-2h-7.82l-1.15,2a8,8,0,1,1,0-8l1.15,2h7.82l1.15-2a8,8,0,0,1,6.94-4m0-4a12,12,0,0,0-10.4,6h-3.2a12,12,0,1,0,0,12h3.2A12,12,0,1,0,408,978Z"/><line class="cls-17" x1="570" y1="810" x2="570" y2="828"/><line class="cls-17" x1="542.57" y1="959.7" x2="560.57" y2="959.7"/><circle class="cls-15" cx="456" cy="828" r="12"/><line class="cls-5" x1="936" y1="630" x2="954" y2="630"/><line class="cls-5" x1="1242" y1="324" x2="1242" y2="360"/><line class="cls-5" x1="858" y1="1062" x2="858" y2="1026"/><line class="cls-5" x1="96" y1="36" x2="96" y2="72"/><line class="cls-5" x1="648" y1="1278" x2="684" y2="1278"/><line class="cls-18" x1="390" y1="1176" x2="378" y2="1188"/><line class="cls-5" x1="174" y1="1002" x2="210" y2="1002"/><line class="cls-19" x1="1050" y1="1296" x2="1050" y2="1260"/><line class="cls-19" x1="1188" y1="1446" x2="1206" y2="1446"/><line class="cls-19" x1="1086.48" y1="1536.48" x2="1110.48" y2="1560.48"/><line class="cls-3" x1="1188" y1="1332" x2="1206" y2="1332"/><path class="cls-15" d="M1155.48,1314.91a12,12,0,1,1-18-10.39v-15.43a12,12,0,1,1,12,0v15.43A12,12,0,0,1,1155.48,1314.91Z"/><line class="cls-18" x1="1530" y1="1962" x2="1530" y2="1998"/></g><g id="Legend"><text class="cls-6" transform="translate(1812 42)">Legend</text><line class="cls-4" x1="1812" y1="72" x2="1896" y2="72"/><line class="cls-1" x1="1812" y1="102" x2="1896" y2="102"/><line class="cls-9" x1="1812" y1="132" x2="1896" y2="132"/><text class="cls-6" transform="translate(1914 78)">Overworld Iceway</text><text class="cls-6" transform="translate(1914 108)"><tspan class="cls-8">W</tspan><tspan x="22.22" y="0">eizenburg Local Railway</tspan></text><text class="cls-6" transform="translate(1914 138)">Nether Iceway</text><text class="cls-6" transform="translate(1812 209.18)">*Iceway from Cat Island to Core is <tspan x="0" y="28.8">currently only 2 blocks wide. Make </tspan><tspan x="0" y="57.6">sure theres no one on that section </tspan><tspan x="0" y="86.4">before entering the icewa</tspan><tspan class="cls-20" x="269.51" y="86.4">y</tspan><tspan x="279.73" y="86.4">.</tspan></text><text/><line class="cls-2" x1="1812" y1="162" x2="1896" y2="162"/><text class="cls-6" transform="translate(1914 168)">Brotway</text></g></g></svg>